Coordinates
datacolumns 6
datarows 61
range 13.72 14.32
inDegrees=yes
Units are S.I. units (second, meters, Newtons, ...)
If the header above contains a line with 'inDegrees', this indicates whether rotational values are in degrees (yes) or radians (no).
endheader
time	foot_tx	hip_flexion_r	knee_angle_r	ankle_angle_r	lumbar
13.72	0.17481949	56.08484525	-72.31296914	5.27642689	-21.53757663
13.73	0.1747891	56.09914262	-72.30264197	5.27041019	-21.63931454
13.74	0.17475465	56.1154168	-72.29159163	5.26428193	-21.74905114
13.75	0.17471251	56.13331674	-72.28063743	5.25895086	-21.86693075
13.76	0.17466897	56.15530567	-72.26928134	5.25370545	-21.99021898
13.77	0.1746223	56.17986263	-72.25672394	5.24840738	-22.12088729
13.78	0.17457583	56.20863645	-72.24289937	5.24279158	-22.2573092
13.79	0.17452822	56.24235999	-72.22830303	5.23729977	-22.39886707
13.8	0.17448208	56.2821462	-72.21300618	5.23184855	-22.54473013
13.81	0.17443944	56.32792208	-72.19594539	5.22585844	-22.69555988
13.82	0.17439766	56.38142347	-72.17858038	5.22021704	-22.84977733
13.83	0.1743568	56.44237173	-72.16134831	5.2153345	-23.00841997
13.84	0.17431911	56.51110468	-72.14298914	5.21035762	-23.17227546
13.85	0.17428238	56.5901463	-72.12490026	5.20588617	-23.33932126
13.86	0.17424585	56.67901824	-72.10656352	5.20175574	-23.51117617
13.87	0.17420864	56.77953036	-72.08825766	5.1979281	-23.68669454
13.88	0.17417583	56.92307666	-72.07074095	5.19165291	-23.83239063
13.89	0.17412832	57.01758175	-72.05221518	5.19166365	-24.04937341
13.9	0.17409028	57.18066116	-72.03513438	5.18738921	-24.20947666
13.91	0.1740426	57.30497626	-72.01680861	5.18848957	-24.4305018
13.92	0.17400367	57.48785139	-71.99984669	5.18663143	-24.60647592
13.93	0.17395848	57.63900761	-71.98105585	5.18932011	-24.83720508
13.94	0.17392452	57.84279903	-71.96397565	5.18975449	-25.03000386
13.95	0.17389242	58.05318646	-71.94557991	5.19117553	-25.23707337
13.96	0.17385422	58.2315317	-71.92598545	5.1977533	-25.5002699
13.97	0.17382417	58.4682432	-71.90791385	5.20191154	-25.72087191
13.98	0.17379426	58.71269067	-71.88840958	5.20729784	-25.95489243
13.99	0.17375625	58.93203143	-71.86734704	5.21757413	-26.23764266
14	0.17372218	59.20126909	-71.84700133	5.22653417	-26.48664224
14.01	0.17368004	59.47733794	-71.82422812	5.23760587	-26.74957173
14.02	0.17362606	59.7223862	-71.79928641	5.25465498	-27.06712773
14.03	0.17357745	60.02204333	-71.77504452	5.27034073	-27.3451463
14.04	0.17352116	60.3285841	-71.74739146	5.28777313	-27.63783971
14.05	0.17345808	60.61026831	-71.718063	5.31031146	-27.9797127
14.06	0.17340089	60.94901411	-71.68857648	5.33001074	-28.28244378
14.07	0.17334205	61.30558423	-71.6576632	5.34997537	-28.589953
14.08	0.17328115	61.74294901	-71.6304797	5.36742166	-28.83119742
14.09	0.17321767	62.19626876	-71.6024085	5.38637875	-29.07580806
14.1	0.17315122	62.68035322	-71.57381789	5.40712464	-29.30382424
14.11	0.17307629	63.18630403	-71.54569424	5.43255981	-29.52163385
14.12	0.17299887	63.70614621	-71.51585284	5.4629483	-29.73566212
14.13	0.17291792	64.23194395	-71.48389251	5.50002685	-29.95223376
14.14	0.17283693	64.75926977	-71.44813444	5.54380421	-30.17487327
14.15	0.17275456	65.28509986	-71.4100028	5.59593076	-30.4060431
14.16	0.17267946	65.81558959	-71.36635657	5.65346645	-30.639262
14.17	0.17261278	66.35193671	-71.31714643	5.71637148	-30.87243561
14.18	0.1725567	66.89526914	-71.2615878	5.78421032	-31.10302693
14.19	0.17251261	67.44645076	-71.19883431	5.85667847	-31.3284149
14.2	0.17248443	68.00734847	-71.12849655	5.9334225	-31.54429037
14.21	0.17247467	68.57549552	-71.04952535	6.01427142	-31.75134338
14.22	0.17248392	69.15494047	-70.96123393	6.09883682	-31.94260017
14.23	0.17251447	69.74332439	-70.86288952	6.1872628	-32.11771061
14.24	0.172568	70.33956353	-70.75428622	6.2799484	-32.27463156
14.25	0.17264224	70.94259741	-70.63489312	6.37703869	-32.41227683
14.26	0.17273704	71.5523095	-70.5044186	6.4783469	-32.52904926
14.27	0.17284541	72.17247472	-70.36318363	6.58389321	-32.61962287
14.28	0.1729629	72.80422211	-70.21148181	6.69367148	-32.68188779
14.29	0.17308885	73.44747376	-70.04857444	6.80695844	-32.7151458
14.3	0.17320852	74.09816085	-69.87861847	6.9269244	-32.72243524
14.31	0.17332444	74.75503061	-69.69968776	7.05203007	-32.7040036
14.32	0.17343783	75.41391134	-69.51199603	7.1822046	-32.66240201
